<svg width="256" height="232" viewBox="0 0 256 232" fill="none" xmlns="http://www.w3.org/2000/svg">
<rect width="256" height="232" fill="none"/>
<rect x="12" y="62" width="115" height="114" rx="8" fill="#63BEF8"/>
<rect x="57" y="72" width="60" height="95" rx="8" fill="white"/>
<rect x="117" y="91" width="10" height="58" fill="white"/>
<path d="M75.9062 94.3125C80.0521 94.3125 83.5 94.8229 86.25 95.8438C89 96.8438 91.0625 98.3438 92.4375 100.344C93.8333 102.344 94.5312 104.833 94.5312 107.812C94.5312 109.667 94.2188 111.354 93.5938 112.875C92.9688 114.396 92.0729 115.76 90.9062 116.969C89.7604 118.156 88.3854 119.198 86.7812 120.094L100.094 140H86.0938L76.4062 123.375H73.2812V140H60.9375V94.3125H75.9062ZM75.7188 103.656H73.2812V114.094H75.5938C77.4896 114.094 79.0417 113.677 80.25 112.844C81.4583 112.01 82.0625 110.521 82.0625 108.375C82.0625 106.896 81.5625 105.74 80.5625 104.906C79.5625 104.073 77.9479 103.656 75.7188 103.656ZM120.812 103.969C125.292 103.969 128.792 105.083 131.312 107.312C133.833 109.521 135.094 112.677 135.094 116.781V140H126.625L124.281 135.312H124.031C123.031 136.562 122 137.583 120.938 138.375C119.896 139.146 118.698 139.708 117.344 140.062C115.99 140.438 114.333 140.625 112.375 140.625C110.333 140.625 108.5 140.208 106.875 139.375C105.25 138.542 103.969 137.281 103.031 135.594C102.094 133.906 101.625 131.771 101.625 129.188C101.625 125.396 102.938 122.583 105.562 120.75C108.188 118.917 111.99 117.885 116.969 117.656L122.875 117.469V116.969C122.875 115.385 122.479 114.26 121.688 113.594C120.917 112.927 119.875 112.594 118.562 112.594C117.167 112.594 115.604 112.844 113.875 113.344C112.167 113.823 110.448 114.448 108.719 115.219L105.188 107.156C107.229 106.115 109.542 105.323 112.125 104.781C114.708 104.24 117.604 103.969 120.812 103.969ZM122.938 124.188L120.125 124.312C117.875 124.396 116.292 124.792 115.375 125.5C114.479 126.188 114.031 127.177 114.031 128.469C114.031 129.677 114.354 130.573 115 131.156C115.646 131.719 116.5 132 117.562 132C119.042 132 120.302 131.531 121.344 130.594C122.406 129.656 122.938 128.438 122.938 126.938V124.188ZM155.688 104.594V140H143.469V104.594H155.688ZM149.625 90.3438C151.375 90.3438 152.896 90.7083 154.188 91.4375C155.5 92.1667 156.156 93.6146 156.156 95.7812C156.156 97.8854 155.5 99.3125 154.188 100.062C152.896 100.792 151.375 101.156 149.625 101.156C147.833 101.156 146.302 100.792 145.031 100.062C143.781 99.3125 143.156 97.8854 143.156 95.7812C143.156 93.6146 143.781 92.1667 145.031 91.4375C146.302 90.7083 147.833 90.3438 149.625 90.3438ZM181.562 130.969C182.667 130.969 183.677 130.854 184.594 130.625C185.51 130.396 186.469 130.104 187.469 129.75V138.656C186.135 139.24 184.719 139.708 183.219 140.062C181.74 140.438 179.844 140.625 177.531 140.625C175.24 140.625 173.219 140.271 171.469 139.562C169.719 138.833 168.354 137.583 167.375 135.812C166.417 134.021 165.938 131.531 165.938 128.344V113.75H161.656V108.781L167.094 104.938L170.25 97.5H178.25V104.594H186.938V113.75H178.25V127.531C178.25 128.677 178.542 129.542 179.125 130.125C179.708 130.688 180.521 130.969 181.562 130.969ZM210.938 103.969C215.417 103.969 218.917 105.083 221.438 107.312C223.958 109.521 225.219 112.677 225.219 116.781V140H216.75L214.406 135.312H214.156C213.156 136.562 212.125 137.583 211.062 138.375C210.021 139.146 208.823 139.708 207.469 140.062C206.115 140.438 204.458 140.625 202.5 140.625C200.458 140.625 198.625 140.208 197 139.375C195.375 138.542 194.094 137.281 193.156 135.594C192.219 133.906 191.75 131.771 191.75 129.188C191.75 125.396 193.062 122.583 195.688 120.75C198.312 118.917 202.115 117.885 207.094 117.656L213 117.469V116.969C213 115.385 212.604 114.26 211.812 113.594C211.042 112.927 210 112.594 208.688 112.594C207.292 112.594 205.729 112.844 204 113.344C202.292 113.823 200.573 114.448 198.844 115.219L195.312 107.156C197.354 106.115 199.667 105.323 202.25 104.781C204.833 104.24 207.729 103.969 210.938 103.969ZM213.062 124.188L210.25 124.312C208 124.396 206.417 124.792 205.5 125.5C204.604 126.188 204.156 127.177 204.156 128.469C204.156 129.677 204.479 130.573 205.125 131.156C205.771 131.719 206.625 132 207.688 132C209.167 132 210.427 131.531 211.469 130.594C212.531 129.656 213.062 128.438 213.062 126.938V124.188Z" fill="black"/>
</svg>
